<?xml version="1.0" standalone="no"?>
<!DOCTYPE svg PUBLIC "-//W3C//DTD SVG 20010904//EN"
 "http://www.w3.org/TR/2001/REC-SVG-20010904/DTD/svg10.dtd">
<svg version="1.0" xmlns="http://www.w3.org/2000/svg"
 width="1024.000000pt" height="1024.000000pt" viewBox="0 0 1024.000000 1024.000000"
 preserveAspectRatio="xMidYMid meet">

<g transform="translate(0.000000,1024.000000) scale(0.100000,-0.100000)"
fill="#000000" stroke="none">
<path d="M0 5120 l0 -5120 5120 0 5120 0 0 5120 0 5120 -5120 0 -5120 0 0
-5120z m8570 2706 c0 -7 -108 -55 -185 -83 -38 -14 -74 -29 -80 -33 -5 -4 -33
-15 -62 -23 -28 -9 -62 -21 -75 -27 -22 -10 -22 -10 -4 4 11 9 40 23 65 32
103 38 297 115 311 124 16 10 30 13 30 6z m37 -140 l51 -104 -26 -11 c-15 -6
-76 -29 -136 -51 -175 -66 -256 -102 -256 -114 0 -27 164 -392 186 -415 2 -2
9 1 17 7 7 6 54 27 104 46 49 19 118 48 152 65 l62 32 49 -107 c28 -58 50
-109 50 -113 0 -3 -69 -35 -153 -71 -123 -53 -153 -69 -155 -86 -5 -34 155
-435 186 -466 4 -4 89 23 188 61 100 39 192 72 205 76 22 5 27 -1 68 -100 24
-58 41 -108 38 -111 -3 -3 -15 20 -26 51 -28 75 -59 135 -70 135 -5 0 -40 -13
-79 -30 -39 -16 -127 -50 -197 -74 l-127 -45 -68 142 c-61 126 -78 149 -70 97
1 -8 -1 -12 -5 -8 -4 4 -14 1 -22 -7 -8 -8 -22 -15 -32 -15 -9 0 -31 -14 -48
-30 l-31 -30 -27 42 c-14 24 -24 36 -21 28 15 -45 107 -245 140 -305 77 -140
87 -155 101 -155 19 0 85 22 225 76 304 117 377 142 310 105 -19 -10 -145 -60
-280 -111 -135 -50 -251 -97 -259 -103 -10 -9 -17 -7 -28 8 -14 19 -15 19 -8
-5 9 -32 -130 249 -156 315 -20 50 -78 176 -134 289 -33 67 -53 77 -107 55
-27 -11 -30 -16 -25 -48 3 -20 8 -45 12 -56 4 -14 2 -12 -9 5 -8 14 -15 20
-16 15 0 -25 106 -300 156 -404 65 -134 66 -151 7 -238 -52 -78 -92 -106 -219
-158 -100 -41 -116 -45 -195 -45 -134 0 -235 41 -292 118 -14 18 -57 109 -97
202 -40 93 -76 167 -80 165 -11 -7 -22 24 -13 37 4 7 1 8 -7 3 -10 -6 -12 -4
-7 9 4 10 3 15 -3 11 -6 -4 -17 9 -25 29 -29 68 -27 69 108 113 67 22 123 39
125 38 2 -2 25 -54 51 -116 114 -267 142 -325 171 -351 37 -34 78 -36 151 -8
62 23 99 55 99 86 0 12 -29 84 -63 160 -93 202 -109 234 -120 227 -6 -3 -7 -1
-3 5 4 6 0 25 -9 41 l-15 30 -36 -21 c-20 -12 -39 -17 -43 -12 -7 8 -47 110
-54 138 -1 4 69 36 155 70 87 33 158 64 158 67 0 4 -32 1 -72 -7 -39 -8 -73
-12 -76 -10 -2 3 23 12 56 21 34 10 83 34 111 55 28 21 56 40 62 42 9 3 7 14
-4 38 -9 19 -19 52 -22 74 -2 21 -32 99 -66 175 -86 190 -169 380 -169 386 0
3 7 5 16 5 18 0 529 202 584 231 19 10 40 18 45 18 6 0 33 -46 62 -103z
m-1447 -1 c0 -28 -17 -32 -46 -10 -16 13 -17 16 -4 25 28 18 50 12 50 -15z
m940 -55 c-8 -6 -53 -22 -100 -37 -47 -14 -97 -32 -111 -39 -15 -7 -30 -10
-33 -6 -4 3 48 25 116 49 127 43 154 50 128 33z m-4376 -145 c37 -70 83 -168
102 -218 20 -51 54 -126 75 -167 21 -41 85 -185 143 -320 57 -135 125 -292
151 -350 81 -184 100 -250 71 -250 -27 0 -64 59 -106 167 -23 60 -62 146 -85
193 -23 47 -77 168 -120 270 -42 102 -89 208 -104 235 -16 28 -54 109 -86 180
-31 72 -76 171 -100 220 -58 122 -71 165 -54 175 25 16 48 -11 113 -135z
m3130 69 c7 -18 -10 -44 -29 -44 -6 0 -19 8 -28 18 -13 14 -14 21 -5 30 17 17
55 15 62 -4z m-798 -24 c50 0 127 -77 147 -146 28 -94 0 -166 -78 -204 -56
-27 -170 -31 -226 -8 -61 26 -129 115 -129 170 0 19 -2 20 -10 8 -6 -9 -10
-10 -10 -3 0 6 5 15 10 18 6 4 7 11 4 17 -4 6 8 23 27 39 18 15 30 31 26 35
-10 11 13 34 34 34 10 0 24 9 31 19 14 20 63 31 112 25 16 -2 44 -4 62 -4z
m1853 -65 c0 -5 -6 1 -14 15 -8 14 -14 30 -14 35 0 6 6 -1 14 -15 8 -14 14
-29 14 -35z m-3927 -80 c6 -14 15 -25 19 -25 4 0 11 -9 14 -21 4 -12 14 -29
22 -39 8 -9 46 -86 84 -170 38 -84 73 -158 77 -164 5 -6 16 -29 24 -51 25 -65
167 -376 195 -427 19 -34 32 -48 47 -48 20 0 177 64 261 107 22 11 114 51 205
88 91 37 190 78 220 92 30 14 109 45 175 69 66 25 168 65 226 89 129 54 279
90 279 66 0 -9 -370 -161 -600 -246 -63 -24 -146 -57 -185 -75 -38 -18 -119
-52 -180 -76 -166 -64 -327 -133 -353 -150 -12 -8 -27 -12 -33 -9 -5 4 -8 1
-7 -6 3 -14 -60 -61 -76 -56 -5 2 -14 16 -19 33 -9 30 -102 274 -117 309 -5
11 -40 95 -79 187 -39 92 -104 236 -146 322 -41 85 -76 163 -78 173 -1 10 -6
23 -10 29 -7 12 1 24 15 24 5 0 14 -11 20 -25z m3568 15 c-134 -10 -286 -69
-354 -136 -31 -32 -61 -84 -48 -84 5 0 16 15 25 34 32 68 255 166 379 166 178
0 276 -60 337 -207 16 -40 46 -102 66 -138 21 -36 36 -67 34 -69 -2 -1 -47
-20 -99 -40 -52 -21 -105 -44 -117 -52 -26 -16 -24 -18 -56 67 -33 86 -75 169
-100 197 -29 31 -87 29 -162 -6 -67 -32 -92 -65 -81 -109 17 -64 186 -427 212
-453 14 -13 14 -12 5 13 -29 76 7 26 44 -63 15 -36 34 -80 42 -98 22 -52 0
-30 -26 27 -19 39 -27 48 -40 42 -25 -12 -141 -51 -202 -69 -68 -19 -89 -13
-89 26 0 30 -67 212 -159 429 -39 92 -51 135 -52 175 0 29 -3 47 -6 41 -2 -7
-9 -13 -13 -13 -16 0 19 93 52 139 57 81 116 120 246 162 69 22 104 28 167 27
l80 -1 -85 -7z m123 -7 c-7 -2 -19 -2 -25 0 -7 3 -2 5 12 5 14 0 19 -2 13 -5z
m44 -9 c-3 -3 -12 -4 -19 -1 -8 3 -5 6 6 6 11 1 17 -2 13 -5z m-4317 -144 c13
-25 56 -124 95 -220 40 -96 107 -256 148 -355 41 -99 88 -210 106 -247 17 -37
31 -71 31 -76 0 -13 -274 -119 -366 -141 -44 -11 -97 -24 -119 -29 -49 -12
-414 -149 -510 -191 -117 -51 -149 -36 -57 26 64 44 183 97 289 129 48 14 104
35 124 45 20 10 121 47 225 82 104 35 219 77 256 93 79 34 78 18 6 184 -27 63
-81 187 -118 275 -37 88 -80 187 -95 220 -40 90 -86 204 -101 254 -12 38 -12
42 1 37 8 -3 15 -1 15 5 0 17 45 -42 70 -91z m4470 33 c28 -48 11 -34 -30 24
-21 31 -26 41 -12 29 12 -10 31 -34 42 -53z m-3263 -4 c51 -31 66 -70 60 -148
-6 -84 -21 -116 -65 -137 -39 -18 -115 -13 -164 12 -40 21 -78 101 -78 164 0
40 5 55 28 80 54 61 148 73 219 29z m1001 -115 c3 -19 -10 -26 -95 -57 -54
-20 -129 -46 -168 -57 -38 -12 -118 -44 -177 -71 -59 -27 -158 -67 -220 -87
-140 -47 -417 -164 -418 -176 -1 -36 411 75 613 166 91 41 228 90 234 85 1 -2
-54 -27 -125 -55 -70 -28 -165 -67 -212 -86 -177 -73 -252 -96 -400 -126 -83
-16 -156 -28 -161 -24 -19 11 37 64 114 107 90 51 294 140 358 157 22 6 102
38 177 72 75 33 181 76 234 94 53 19 121 45 150 58 63 29 92 29 96 0z m3107
-4 c-27 -11 -54 -20 -60 -19 -17 1 69 38 90 38 11 0 -2 -9 -30 -19z m-1910
-92 c75 -18 133 -49 162 -86 51 -65 49 -69 -7 -12 -42 42 -68 59 -110 72 -87
27 -134 31 -192 18 -44 -11 -429 -148 -507 -181 -18 -7 -26 -7 -32 3 -6 9 2
15 29 20 40 7 77 19 272 93 267 100 273 101 385 73z m27 -45 c63 -25 101 -51
130 -92 25 -36 155 -320 189 -417 26 -74 13 -114 -62 -185 -32 -31 -59 -59
-59 -62 0 -4 24 -7 53 -7 52 0 157 -29 183 -50 18 -16 49 -86 93 -208 67 -188
146 -336 218 -408 21 -21 29 -4 12 28 -10 20 -8 19 20 -6 l31 -29 -33 -22
c-45 -31 -158 -75 -192 -75 -61 0 -155 136 -235 340 -49 124 -107 218 -154
248 -34 21 -48 24 -95 19 -31 -2 -74 -13 -96 -23 -22 -10 -41 -19 -42 -19 -5
-2 76 -224 112 -305 20 -47 56 -132 80 -190 23 -58 52 -126 64 -153 20 -47 23
-64 9 -60 -13 5 -183 -59 -190 -70 -4 -6 -8 -9 -10 -7 -20 32 -120 247 -167
360 -91 223 -107 254 -143 292 -21 22 -46 38 -70 42 l-38 7 0 -49 c0 -27 9
-75 20 -107 11 -32 20 -61 20 -64 -1 -13 -30 46 -46 92 -9 27 -18 47 -20 45
-9 -9 91 -287 136 -379 66 -135 69 -155 34 -219 -64 -117 -138 -171 -359 -260
-92 -37 -126 -36 -225 1 -117 45 -163 104 -229 294 -42 121 -114 295 -123 295
-4 0 -2 -14 3 -32 5 -17 7 -33 5 -35 -6 -6 -26 58 -26 82 0 19 -7 24 -42 29
-52 9 -68 21 -68 55 1 40 28 65 108 95 40 16 71 30 69 32 -2 3 -30 -5 -62 -17
-34 -13 -60 -18 -66 -12 -5 5 -29 61 -53 124 -24 62 -61 150 -83 194 -47 93
-103 261 -103 308 0 93 42 150 140 189 245 99 276 108 362 107 46 0 101 -7
123 -15 22 -7 29 -12 15 -9 -146 25 -228 14 -400 -57 -143 -59 -174 -78 -195
-118 -22 -43 -18 -48 8 -9 27 41 107 82 260 133 144 49 214 55 306 27 108 -33
130 -58 226 -256 46 -93 86 -180 90 -193 4 -13 9 -21 12 -18 17 17 -151 372
-204 430 -25 28 -26 29 -3 11 13 -11 30 -27 38 -35 17 -20 107 -199 163 -324
32 -73 52 -104 73 -117 22 -13 33 -15 43 -7 21 17 15 56 -27 161 -22 55 -39
102 -36 104 2 2 18 -28 36 -67 59 -125 42 -67 -23 81 -156 352 -171 390 -156
400 19 12 250 103 384 151 122 43 180 46 267 11z m597 -58 c0 -5 -6 1 -14 15
-8 14 -14 34 -14 45 0 13 5 8 14 -15 7 -19 14 -39 14 -45z m-3618 -180 c5 -11
10 -27 11 -35 2 -8 6 -17 9 -20 6 -5 97 -220 107 -254 3 -13 1 -17 -7 -12 -6
4 -9 12 -6 17 4 5 0 9 -8 9 -17 0 -79 130 -81 173 -2 18 -8 42 -15 55 -7 13
-14 31 -16 40 -2 9 -18 50 -34 91 -17 40 -31 76 -30 80 0 5 44 -85 70 -144z
m3654 104 c9 -17 14 -33 11 -36 -3 -3 -10 7 -16 22 -6 15 -13 32 -16 36 -3 5
-3 9 0 9 3 0 13 -14 21 -31z m-437 -24 c-3 -3 -9 2 -12 12 -6 14 -5 15 5 6 7
-7 10 -15 7 -18z m-4458 -25 c-13 -8 -12 -10 3 -10 9 0 17 4 17 9 0 5 31 9 69
8 55 -2 67 -5 63 -16 -3 -9 -1 -12 6 -7 7 4 12 2 12 -3 0 -6 14 -11 30 -11 18
0 33 -6 36 -15 4 -8 10 -12 15 -9 5 3 9 0 9 -6 0 -6 7 -18 15 -26 8 -9 15 -23
15 -32 0 -11 -11 -5 -38 21 -21 20 -44 37 -52 37 -13 -1 -13 -2 0 -13 44 -35
70 -80 70 -119 0 -78 -65 -142 -172 -168 -112 -28 -248 66 -248 172 0 20 -4
40 -10 43 -12 7 11 45 61 102 22 24 40 36 43 30 2 -7 5 -6 5 3 1 10 12 17 34
18 24 2 28 0 17 -8z m4930 -35 c0 -5 -5 -3 -10 5 -5 8 -10 20 -10 25 0 6 5 3
10 -5 5 -8 10 -19 10 -25z m-1290 -90 c0 -5 -5 -3 -10 5 -5 8 -10 20 -10 25 0
6 5 3 10 -5 5 -8 10 -19 10 -25z m-185 -23 c-3 -3 -11 0 -18 7 -9 10 -8 11 6
5 10 -3 15 -9 12 -12z m1086 -8 c5 -15 8 -29 5 -31 -2 -2 -8 10 -14 26 -13 38
-5 41 9 5z m639 -4 c-8 -5 -24 -9 -35 -9 l-20 0 20 9 c11 5 27 9 35 9 13 1 13
0 0 -9z m-5343 -62 c-3 -7 -5 -2 -5 12 0 14 2 19 5 13 2 -7 2 -19 0 -25z
m3853 -13 c0 -5 -5 -3 -10 5 -5 8 -10 20 -10 25 0 6 5 3 10 -5 5 -8 10 -19 10
-25z m-1052 -161 c18 -53 31 -99 28 -101 -2 -2 -7 6 -11 19 -8 24 -55 130 -61
137 -2 2 -9 -1 -16 -6 -49 -40 -637 -261 -658 -248 -6 3 -10 13 -10 21 0 10 7
13 23 9 25 -6 304 82 382 122 27 13 84 38 126 54 42 16 93 43 115 59 21 16 41
30 44 30 3 0 20 -43 38 -96z m3977 46 c4 -6 -7 -10 -27 -9 -27 0 -30 2 -13 9
27 12 33 12 40 0z m-3982 -121 c26 -56 45 -104 42 -109 -5 -9 -294 -125 -337
-135 -16 -4 -28 -11 -28 -16 0 -22 49 -138 118 -282 89 -185 70 -177 233 -102
105 48 130 53 149 31 6 -8 21 -16 33 -18 18 -2 21 -9 19 -33 -3 -33 16 -113
31 -132 10 -14 3 -18 -56 -28 -48 -8 -195 -70 -225 -95 l-24 -19 31 -78 c17
-43 64 -166 106 -273 42 -107 96 -232 120 -277 33 -62 40 -83 29 -83 -9 0 -43
-11 -77 -24 -34 -13 -83 -30 -109 -38 -44 -14 -48 -14 -48 1 0 20 -49 143
-120 301 -29 63 -65 147 -80 185 -47 116 -93 211 -97 199 -2 -6 5 -32 16 -57
11 -26 18 -47 15 -47 -3 0 -16 25 -29 55 -14 30 -31 55 -39 55 -25 0 -66 41
-66 66 0 43 19 63 93 99 117 57 138 81 35 41 -48 -19 -91 -37 -96 -40 -8 -5
-33 52 -38 84 -3 32 -242 578 -263 603 -8 9 -12 19 -10 21 3 3 90 36 194 74
105 39 242 93 305 120 63 28 117 50 120 51 3 0 26 -45 53 -100z m118 5 c24
-73 17 -82 -9 -12 -37 97 -36 94 -22 81 6 -6 21 -37 31 -69z m-67 -60 c3 -8 2
-12 -4 -9 -6 3 -10 10 -10 16 0 14 7 11 14 -7z m16 -34 c0 -5 -2 -10 -4 -10
-3 0 -8 5 -11 10 -3 6 -1 10 4 10 6 0 11 -4 11 -10z m1883 -7 c-7 -2 -19 -2
-25 0 -7 3 -2 5 12 5 14 0 19 -2 13 -5z m90 -16 c18 -8 39 -22 47 -32 14 -18
14 -18 -12 -1 -15 10 -47 24 -70 31 -28 9 -35 14 -20 14 12 1 37 -5 55 -12z
m-3203 -7 c0 -5 -8 -10 -17 -10 -15 0 -16 2 -3 10 19 12 20 12 20 0z m-200
-36 c19 -22 28 -40 22 -46 -8 -8 -115 -50 -412 -162 -63 -24 -178 -70 -255
-101 -187 -76 -461 -175 -488 -175 -20 0 8 21 70 53 99 51 265 121 432 184 80
30 237 91 348 135 195 78 203 81 213 114 15 43 30 43 70 -2z m591 -35 c8 -54
4 -61 -13 -23 -6 16 -13 30 -14 32 -1 2 -51 -18 -110 -43 -145 -63 -464 -188
-541 -213 -34 -11 -71 -26 -83 -32 -14 -7 -26 -8 -32 -2 -10 10 1 14 217 91
183 64 421 168 417 182 -1 6 3 9 10 6 7 -2 25 4 40 14 14 11 38 20 52 21 14 1
26 6 26 11 0 5 6 7 13 5 6 -3 15 -25 18 -49z m-371 27 c0 -3 -4 -8 -10 -11 -5
-3 -10 -1 -10 4 0 6 5 11 10 11 6 0 10 -2 10 -4z m374 -129 c22 -50 46 -99 54
-107 13 -13 14 -13 9 3 -4 9 -4 17 0 17 7 0 32 -32 33 -42 0 -5 -14 -8 -31 -8
-56 0 -449 -146 -457 -169 -2 -7 29 -92 69 -189 40 -97 78 -191 85 -209 12
-31 14 -32 41 -19 65 32 306 117 317 113 14 -6 76 -159 76 -188 0 -21 -53 -48
-187 -96 -40 -14 -70 -29 -68 -33 3 -5 -11 -14 -31 -20 -19 -7 -38 -18 -40
-24 -3 -7 22 -78 54 -157 32 -79 69 -175 82 -214 12 -38 29 -82 37 -98 13 -25
15 -26 36 -13 33 22 181 84 276 117 46 16 90 34 97 40 11 9 24 -11 69 -106 30
-65 54 -119 53 -120 -2 -1 -46 -16 -98 -34 -132 -45 -303 -123 -290 -131 7 -4
2 -13 -14 -23 -14 -10 -28 -17 -31 -17 -5 0 -81 -56 -95 -70 -15 -15 -68 -48
-85 -53 -35 -11 -80 7 -129 50 l-48 42 21 27 c26 33 26 64 1 148 -12 37 -19
70 -16 74 6 11 -114 345 -147 407 -15 28 -42 65 -62 83 -46 44 -47 77 -2 96
31 14 31 14 6 15 -29 1 -33 8 -100 186 -65 175 -81 208 -91 193 -6 -9 -7 -6
-3 9 7 24 -86 270 -115 306 -18 21 -17 22 114 75 72 29 172 69 221 88 126 48
308 126 320 136 20 18 32 4 69 -85z m484 -2 c-3 -3 -9 2 -12 12 -6 14 -5 15 5
6 7 -7 10 -15 7 -18z m3153 -7 c-4 -12 -13 -24 -19 -26 -7 -2 -7 5 1 22 15 32
30 35 18 4z m1199 -86 c0 -26 -8 -31 -122 -79 -68 -28 -168 -68 -223 -88 -55
-21 -149 -60 -208 -87 -60 -26 -115 -48 -122 -48 -13 0 -104 94 -132 136 -10
16 -12 31 -6 54 l8 32 33 -49 c17 -26 47 -65 66 -86 l33 -37 69 35 c38 20 166
73 284 120 118 46 235 93 260 104 58 26 60 26 60 -7z m-2405 -66 c14 -38 24
-70 22 -73 -4 -3 -57 131 -57 144 0 15 11 -8 35 -71z m-3264 -76 c4 -19 10
-46 14 -60 3 -14 -6 -4 -20 23 -14 26 -27 47 -29 47 -12 0 -155 -54 -249 -94
-60 -25 -159 -63 -220 -85 -62 -21 -152 -53 -200 -70 -49 -18 -94 -30 -100
-28 -8 3 -7 7 3 10 8 4 103 38 210 78 235 86 395 149 481 188 82 38 102 37
110 -9z m120 -31 c16 -34 29 -63 27 -65 -2 -2 -18 26 -36 61 -17 36 -30 65
-27 65 3 0 19 -27 36 -61z m-112 -79 c22 -52 37 -98 33 -101 -4 -3 -60 -26
-124 -50 -65 -24 -118 -48 -118 -54 0 -5 13 -44 29 -85 17 -41 55 -140 85
-220 70 -182 83 -207 110 -214 26 -7 54 -46 62 -85 6 -26 2 -33 -27 -51 l-34
-21 29 7 c20 5 27 3 22 -4 -3 -6 7 -44 22 -84 16 -40 35 -91 42 -113 25 -81
183 -500 191 -509 13 -15 11 -22 -8 -23 -35 -3 -213 -64 -213 -73 0 -6 -4 -10
-9 -10 -5 0 -23 39 -41 88 -65 182 -178 480 -237 630 -3 6 0 12 7 12 16 0 182
72 177 77 -5 4 -79 -22 -110 -38 -10 -5 -22 -7 -27 -4 -5 3 -30 1 -57 -5 -46
-11 -49 -10 -70 17 -30 37 -29 61 5 75 65 26 231 103 228 106 -2 1 -16 -2 -32
-9 -16 -6 -68 -21 -116 -34 l-86 -23 -11 26 c-6 15 -30 83 -54 152 -58 163
-127 330 -138 330 -4 0 -58 -23 -118 -51 -61 -28 -115 -48 -120 -45 -4 3 -11
25 -13 48 -3 24 -16 71 -30 105 l-25 62 111 37 c156 52 588 223 604 239 10 10
21 -9 61 -105z m1726 71 c-6 -5 -41 -20 -80 -34 -38 -14 -87 -32 -107 -41 -20
-9 -39 -12 -42 -8 -3 5 12 15 32 22 185 68 214 77 197 61z m-1685 -106 c0 -5
-5 -3 -10 5 -5 8 -10 20 -10 25 0 6 5 3 10 -5 5 -8 10 -19 10 -25z m4731 -33
c-32 -63 -94 -105 -251 -172 -262 -112 -241 -106 -323 -86 -90 21 -157 51
-157 69 0 24 22 26 110 6 132 -29 163 -26 276 27 225 104 266 127 312 172 52
52 64 45 33 -16z m-4267 -4 c18 -43 30 -84 23 -78 -9 8 -47 110 -41 110 3 0
11 -15 18 -32z m-2444 -97 c0 -5 -5 -22 -10 -37 -10 -26 -11 -26 -30 -9 -26
23 -25 34 3 45 29 12 37 12 37 1z m1090 -2 c0 -13 -52 -35 -155 -65 -141 -42
-135 -25 10 25 77 27 141 49 143 50 1 0 2 -4 2 -10z m-5 -181 c4 -84 5 -310 2
-503 l-4 -350 59 -165 c62 -174 186 -487 218 -550 l19 -38 -27 -5 c-35 -7
-187 -70 -207 -87 -8 -7 -15 -11 -15 -9 0 2 -14 42 -31 89 -17 47 -45 128 -63
180 -18 52 -42 113 -53 135 -11 22 -44 112 -74 199 l-54 160 -145 145 c-80 81
-235 238 -344 350 -109 112 -213 212 -230 222 -17 10 -24 19 -16 19 9 0 60 18
114 40 54 22 108 40 121 40 30 0 115 -79 258 -237 100 -112 202 -238 224 -277
7 -13 12 38 16 171 4 103 10 269 13 369 l7 181 46 12 c25 6 69 22 96 35 28 14
53 25 56 25 4 1 10 -68 14 -151z m4315 90 c16 -34 37 -69 46 -79 14 -16 14
-18 -5 -29 -18 -9 -21 -8 -22 10 -1 11 -2 26 -3 33 -1 6 -4 14 -7 17 -6 6 -49
97 -49 105 0 17 14 -3 40 -57z m-2500 45 c0 -5 -49 -23 -108 -42 -59 -18 -114
-36 -122 -39 -8 -2 -12 -1 -8 3 8 8 206 82 226 84 6 0 12 -2 12 -6z m-710 -48
c0 -5 -5 -3 -10 5 -5 8 -10 20 -10 25 0 6 5 3 10 -5 5 -8 10 -19 10 -25z
m-2542 -38 c2 -19 -1 -27 -13 -27 -19 0 -30 24 -21 46 9 23 31 11 34 -19z
m1201 -118 c0 -83 -2 -149 -5 -147 -7 8 -9 298 -1 298 4 0 7 -68 6 -151z
m1371 76 c0 -5 -5 -3 -10 5 -5 8 -10 20 -10 25 0 6 5 3 10 -5 5 -8 10 -19 10
-25z m409 31 c-14 -13 -70 -36 -64 -26 4 6 17 15 29 20 22 9 42 13 35 6z
m-805 -65 c-7 -7 -12 3 -19 34 l-6 30 14 -30 c8 -16 13 -32 11 -34z m1990 -18
c-27 -20 -124 -54 -169 -61 -36 -5 -39 -4 -27 11 8 9 42 25 77 37 35 12 79 31
97 44 32 22 33 22 36 2 2 -11 -4 -26 -14 -33z m-1574 2 c0 -5 -5 -3 -10 5 -5
8 -10 20 -10 25 0 6 5 3 10 -5 5 -8 10 -19 10 -25z m3437 -108 c16 6 66 28
113 47 47 20 95 36 107 36 28 0 39 -18 22 -35 -22 -21 -226 -95 -262 -95 -30
0 -131 56 -149 84 -10 14 -10 70 -1 80 4 3 38 -24 75 -61 65 -64 69 -67 95
-56z m-3584 28 c9 -33 18 -69 22 -80 3 -11 -3 -3 -15 17 -11 21 -23 59 -27 85
-8 63 1 53 20 -22z m-1645 -26 c91 -97 92 -110 2 -19 l-72 73 -37 -13 c-20 -7
-77 -30 -127 -51 -88 -37 -147 -49 -158 -30 -3 4 18 11 47 14 45 5 225 71 244
90 16 17 40 2 101 -64z m2726 -151 c31 -76 56 -141 56 -145 -1 -34 -121 236
-135 303 l-6 29 14 -25 c8 -14 40 -87 71 -162z m799 24 c60 -105 103 -191 129
-259 25 -68 104 -153 141 -153 14 0 74 19 133 43 60 24 165 65 234 91 69 27
150 58 180 71 33 14 88 26 138 30 81 7 82 7 82 -16 0 -45 -26 -59 -110 -59
-116 0 -259 -41 -315 -90 -11 -9 -33 -20 -50 -24 -16 -4 -94 -32 -172 -63
l-143 -57 -26 25 c-41 38 -133 182 -153 240 -10 30 -41 101 -69 159 -28 58
-53 116 -57 129 -13 42 11 14 58 -67z m1467 -6 c0 -22 -9 -27 -83 -50 -46 -14
-99 -36 -118 -49 -19 -12 -40 -26 -46 -31 -21 -12 -15 18 10 54 17 26 41 40
107 66 108 41 130 42 130 10z m-5459 -31 c40 -13 80 -31 88 -40 14 -14 12 -14
-17 1 -49 24 -131 44 -183 44 -61 0 -171 -34 -365 -113 -160 -65 -274 -102
-274 -88 0 5 41 20 92 36 51 15 122 42 158 60 59 30 115 52 265 106 72 25 150
24 236 -6z m-7 -35 c83 -26 123 -64 169 -162 60 -127 137 -336 137 -373 0 -47
-30 -104 -74 -143 -20 -17 -36 -38 -36 -45 0 -15 41 -27 90 -27 40 0 111 -27
138 -53 36 -33 56 -78 122 -274 91 -268 94 -280 81 -332 -15 -55 -54 -112
-123 -177 -64 -60 -107 -84 -238 -130 -52 -18 -144 -54 -205 -79 -60 -24 -117
-45 -125 -44 -23 0 34 28 104 51 33 11 93 35 131 53 39 18 95 41 125 50 99 32
164 71 222 133 93 101 115 173 82 267 -13 38 -13 39 -7 5 16 -79 9 -133 -22
-182 -16 -26 -33 -44 -39 -41 -5 3 -6 2 -3 -4 7 -12 -42 -58 -51 -48 -4 4 1
12 10 19 15 11 15 13 -3 24 -10 7 -19 8 -19 3 0 -5 6 -12 13 -15 6 -3 3 -5 -8
-3 -11 1 -21 8 -21 15 -1 6 -2 19 -3 27 0 8 -9 15 -18 15 -10 1 -31 7 -47 13
l-30 13 24 22 c13 12 19 22 13 22 -6 0 -17 -7 -24 -16 -26 -31 -84 -60 -205
-102 -67 -23 -123 -42 -126 -42 -3 0 -8 8 -11 18 -4 9 -22 60 -41 112 -31 84
-35 91 -35 57 -1 -23 3 -36 9 -32 6 3 10 -1 10 -9 0 -9 -7 -16 -15 -16 -8 0
-15 7 -15 15 0 14 -3 13 -25 -1 -29 -19 -102 -14 -117 8 -7 10 -8 8 -4 -5 3
-10 0 -20 -8 -23 -16 -6 26 -148 93 -309 41 -100 48 -125 33 -125 -8 0 -65
149 -176 461 -61 169 -83 219 -98 221 -7 0 -20 2 -28 3 -24 2 -80 -56 -80 -83
0 -18 -4 -23 -16 -18 -12 5 -14 1 -9 -15 4 -12 15 -49 26 -83 91 -301 138
-441 145 -433 2 2 -10 52 -26 113 -16 60 -29 114 -29 119 0 24 49 -122 84
-250 36 -137 87 -247 134 -289 16 -15 21 -13 67 19 27 19 92 52 144 71 52 20
131 52 175 71 44 19 121 50 171 68 119 43 147 58 201 108 60 55 97 111 121
180 24 73 32 80 32 31 -1 -67 -16 -112 -64 -182 -54 -79 -96 -114 -174 -148
-31 -14 -73 -33 -92 -43 -19 -10 -53 -24 -75 -31 -53 -17 -312 -120 -398 -159
-81 -37 -86 -37 -138 -10 -37 18 -46 32 -114 173 -40 84 -85 190 -100 237 -40
122 -103 304 -131 379 -29 76 -45 105 -59 105 -5 1 -48 13 -95 27 -47 15 -96
28 -109 30 -24 3 -23 4 12 28 20 14 37 30 37 35 0 6 16 34 36 63 l36 54 -37
141 c-20 78 -55 197 -77 264 -35 103 -40 124 -29 137 11 13 16 14 29 4 13 -11
14 -9 8 15 -3 15 -3 27 2 27 4 0 16 -30 26 -67 10 -38 20 -75 23 -83 4 -13 3
-13 -6 0 -17 24 -13 10 28 -111 45 -132 70 -190 71 -169 0 8 14 -9 31 -39 29
-50 32 -53 62 -47 18 4 33 10 35 14 12 34 23 36 46 9 15 -19 30 -27 42 -24 18
4 18 5 -1 6 -29 2 -42 28 -85 176 -37 124 -161 478 -195 553 -13 29 -13 32 3
32 9 0 89 30 177 66 336 138 404 152 529 114z m1570 -215 c30 -66 80 -190 110
-277 31 -86 71 -192 90 -235 18 -43 46 -116 61 -163 34 -108 118 -278 159
-327 l33 -37 49 28 c58 33 247 116 263 116 6 0 11 -13 11 -28 0 -27 -6 -31
-152 -89 -84 -34 -163 -64 -175 -68 -20 -5 -30 4 -77 77 -78 121 -100 169
-171 376 -36 103 -70 196 -76 206 -6 11 -42 108 -80 215 -37 108 -79 224 -93
258 -15 34 -29 77 -31 95 l-6 33 15 -30 c8 -16 40 -84 70 -150z m1913 18 c-2
-2 -17 25 -32 59 -40 93 -40 104 0 19 20 -40 34 -75 32 -78z m3503 67 c26 -18
30 -28 30 -66 0 -103 -113 -135 -203 -56 -32 28 -1 122 46 142 33 14 92 5 127
-20z m-4613 -213 c25 -67 63 -177 85 -245 43 -136 64 -177 157 -316 63 -94 83
-111 94 -81 4 8 29 26 57 40 43 22 350 149 524 217 62 24 100 21 104 -9 3 -18
-5 -24 -55 -37 -66 -19 -85 -26 -238 -91 -60 -26 -148 -63 -195 -82 -47 -19
-116 -48 -154 -64 -38 -17 -74 -28 -81 -25 -18 7 -138 192 -164 254 -12 29
-31 82 -42 118 -11 35 -35 100 -54 143 -26 62 -107 302 -131 389 -12 45 53
-103 93 -211z m4353 164 c0 -5 -30 -19 -67 -32 -38 -12 -93 -33 -123 -47 -30
-13 -143 -57 -250 -97 -107 -41 -208 -78 -223 -84 -20 -8 -26 -8 -21 0 8 14
50 32 264 112 96 36 209 80 250 98 41 17 95 38 120 45 25 7 46 13 48 13 1 1 2
-3 2 -8z m-3410 -19 c0 -4 -30 -18 -67 -30 -224 -78 -374 -139 -381 -155 -5
-10 -22 2 -22 15 0 6 3 9 6 5 3 -3 40 10 82 30 72 33 149 63 302 118 73 27 80
28 80 17z m-2075 -371 c-18 -88 -29 -107 -22 -36 3 28 11 131 19 230 l13 180
3 -150 c2 -105 -2 -171 -13 -224z m5545 211 c-56 -16 -565 -223 -647 -264 -57
-27 -107 -47 -112 -44 -5 3 -11 15 -14 26 -3 11 -1 18 3 15 4 -3 32 8 62 23
74 39 232 106 298 127 30 10 91 33 134 52 44 19 99 37 123 40 23 3 66 13 95
23 29 10 57 15 63 12 5 -3 2 -8 -5 -10z m-942 -105 c12 0 22 -5 22 -10 0 -5 7
-7 15 -3 26 10 73 -5 78 -25 3 -10 1 -19 -3 -19 -5 0 -3 -12 5 -27 8 -15 13
-28 11 -30 -1 -2 -21 14 -43 35 -51 49 -163 88 -220 77 -116 -21 -215 -133
-231 -261 l-7 -56 -60 -2 c-63 -2 -179 -42 -455 -153 -74 -30 -164 -66 -200
-80 -36 -13 -124 -49 -196 -79 -72 -29 -134 -54 -138 -54 -3 0 -6 6 -6 14 0
23 52 49 245 124 99 39 207 82 240 97 164 73 447 175 487 175 15 0 29 5 29 10
2 15 4 22 17 53 7 16 12 32 12 37 0 17 45 79 58 80 6 0 12 3 12 8 0 11 99 74
140 89 23 9 58 11 100 8 36 -3 75 -7 88 -8z m-2358 -97 c39 -84 43 -85 139
-45 45 19 114 44 152 56 65 20 72 20 87 5 21 -21 11 -29 -63 -51 -33 -10 -104
-36 -158 -57 -53 -21 -101 -38 -105 -38 -16 0 -92 126 -92 153 0 41 14 33 40
-23z m2311 14 c37 -11 67 -29 96 -59 38 -37 43 -48 43 -88 0 -114 -68 -180
-186 -181 -78 0 -144 25 -184 70 -30 34 -44 78 -17 56 9 -8 12 2 14 44 2 72
34 127 87 154 50 24 76 25 147 4z m-2597 -19 c-17 -8 -44 -16 -60 -20 -16 -3
-6 4 21 14 57 22 86 26 39 6z m2055 -59 c-2 -3 -47 -13 -99 -24 -60 -13 -165
-48 -285 -97 -104 -43 -242 -97 -305 -120 -63 -23 -133 -54 -154 -68 -46 -32
-58 -33 -113 -8 -47 22 -69 51 -51 69 18 18 23 16 73 -28 25 -22 51 -40 56
-40 6 0 22 13 37 29 34 36 62 50 187 94 55 19 120 44 145 55 207 91 291 122
337 123 26 0 66 4 88 8 45 10 90 13 84 7z m-4469 -192 c22 -24 40 -52 40 -62
0 -13 -27 9 -88 72 -48 50 -94 100 -102 111 -23 30 106 -73 150 -121z m4723
-75 c23 -41 22 -53 -5 -46 -13 4 -35 -2 -54 -14 -18 -11 -85 -41 -151 -68
-112 -46 -414 -172 -588 -246 -74 -31 -232 -118 -285 -157 -31 -23 -31 -53 3
-121 16 -33 48 -109 72 -170 24 -62 55 -139 69 -172 32 -74 33 -91 6 -67 -32
26 -230 432 -226 462 10 77 19 120 27 120 5 0 9 -7 9 -15 0 -8 4 -15 10 -15 5
0 7 -7 3 -16 -5 -14 -3 -15 14 -5 26 13 39 43 16 34 -10 -4 -14 -2 -9 5 3 6
-1 15 -11 21 -14 8 -11 10 20 16 21 4 80 34 132 66 52 33 136 75 187 93 51 19
157 62 236 95 147 64 265 109 364 141 85 28 143 64 132 82 -3 4 -2 8 3 8 4 0
16 -14 26 -31z m-1528 -225 c0 -29 -30 -28 -43 1 -7 15 -10 31 -6 36 9 15 49
-15 49 -37z m-350 -45 c-9 -92 -17 -120 -38 -133 -28 -18 -31 1 -12 86 20 92
31 118 46 118 8 0 9 -23 4 -71z m510 31 c-16 -4 -43 -8 -60 -8 -29 0 -29 0 -5
8 14 4 41 8 60 8 l35 0 -30 -8z m-3136 -235 c29 -79 97 -221 110 -230 7 -4 26
0 44 8 18 8 81 36 140 61 60 26 121 53 137 61 27 14 28 13 33 -11 4 -21 -2
-29 -26 -44 -35 -21 -307 -134 -311 -128 -89 109 -228 422 -226 509 1 15 68
-140 99 -226z m3154 208 c-7 -2 -19 -2 -25 0 -7 3 -2 5 12 5 14 0 19 -2 13 -5z
m17 -45 c51 -26 78 -67 90 -135 l8 -48 1 58 c1 33 6 57 12 57 5 0 8 -4 4 -9
-3 -5 -1 -12 4 -15 16 -10 4 -93 -20 -137 -18 -31 -40 -52 -83 -76 -50 -29
-68 -33 -127 -33 -114 0 -186 50 -215 148 -20 67 -14 102 8 52 l16 -35 1 33
c2 61 58 134 117 152 57 17 137 11 184 -12z m-667 -54 c5 -28 8 -26 -115 -70
-83 -29 -246 -94 -353 -139 -44 -18 -91 -37 -105 -40 -14 -4 -60 -22 -103 -41
-80 -35 -122 -43 -115 -22 5 14 94 53 343 148 321 122 394 153 412 172 22 24
30 23 36 -8z m767 5 c0 -6 -4 -7 -10 -4 -5 3 -10 11 -10 16 0 6 5 7 10 4 6 -3
10 -11 10 -16z m1010 -157 c55 -42 51 -103 -11 -165 l-39 -40 -73 5 c-51 3
-87 13 -123 31 -52 27 -160 48 -344 67 -130 14 -176 26 -189 48 -6 9 -11 13
-11 8 0 -5 23 -54 51 -110 53 -105 165 -371 226 -536 19 -52 48 -131 65 -175
40 -108 77 -252 71 -276 -3 -11 1 -21 11 -25 9 -3 16 -15 16 -25 0 -10 5 -19
10 -19 6 0 10 -5 10 -11 0 -6 7 -17 15 -25 17 -18 20 -70 5 -79 -15 -9 -82 64
-76 82 3 8 2 12 -2 9 -5 -3 -16 10 -25 29 -20 42 -14 47 7 8 28 -52 16 -3 -13
55 -29 57 -65 198 -55 214 3 4 0 8 -5 8 -6 0 -10 10 -9 23 1 13 -5 39 -14 58
-50 108 -216 508 -249 601 -21 60 -42 133 -45 163 -6 52 -6 54 19 60 14 4 41
2 59 -4 18 -5 98 -22 178 -36 80 -14 167 -32 193 -40 61 -18 83 -10 134 50 63
73 151 93 213 47z m-1493 -24 c-3 -8 -6 -5 -6 6 -1 11 2 17 5 13 3 -3 4 -12 1
-19z m-107 4 c0 -4 -51 -29 -112 -54 -62 -26 -144 -60 -183 -77 -38 -17 -133
-55 -210 -85 -77 -29 -176 -69 -220 -88 -44 -19 -113 -47 -153 -63 -66 -25
-75 -31 -89 -66 -8 -21 -17 -39 -19 -39 -2 0 -24 22 -50 50 -61 65 -133 94
-221 87 -35 -3 -76 -13 -95 -24 -44 -26 -92 -90 -118 -160 -19 -49 -21 -70
-15 -133 9 -99 9 -129 2 -136 -3 -4 -21 -7 -39 -8 -67 -4 -162 -40 -617 -232
-96 -41 -178 -74 -183 -74 -4 0 -8 8 -8 19 0 22 108 81 230 126 41 15 80 32
86 36 6 5 41 20 78 34 37 14 84 34 105 44 20 11 87 36 149 56 61 20 115 42
121 48 5 7 12 44 15 82 7 96 9 105 19 105 5 0 4 6 -2 14 -10 12 -7 21 16 47
15 17 27 36 25 40 -1 5 9 14 24 19 16 6 23 14 18 22 -4 7 -4 10 0 6 4 -3 21 7
38 22 51 49 104 68 211 76 55 4 97 3 97 -2 0 -5 12 -10 28 -10 55 -3 72 -8 68
-21 -10 -25 35 -13 189 51 85 36 201 81 257 102 56 20 157 61 223 91 134 61
187 80 260 92 69 12 75 12 75 3z m133 -64 c9 -21 14 -38 11 -38 -5 0 -34 64
-34 76 0 12 7 0 23 -38z m462 -237 c15 -36 35 -81 46 -99 25 -44 73 -156 114
-267 18 -50 50 -126 72 -170 45 -90 82 -185 114 -295 12 -41 35 -100 50 -131
47 -95 99 -257 101 -317 3 -51 1 -57 -17 -57 -15 0 -26 18 -53 90 -18 50 -55
142 -82 205 -26 63 -69 178 -95 255 -26 76 -64 175 -86 218 -22 44 -64 143
-95 221 -31 77 -89 211 -130 296 -41 86 -74 163 -74 172 0 62 97 -25 135 -121z
m-520 114 c-1 -14 -6 -30 -11 -35 -5 -5 -58 -25 -119 -46 -60 -20 -153 -53
-205 -74 -52 -21 -122 -45 -155 -55 -56 -16 -336 -124 -422 -163 -39 -17 -53
-27 -98 -69 -13 -13 -26 -23 -28 -23 -3 0 -8 26 -11 58 -4 31 -10 66 -13 77
-5 18 -4 18 11 6 14 -12 25 -12 74 -1 31 8 77 22 102 33 57 24 280 110 385
147 79 28 312 114 410 150 68 26 81 25 80 -5z m145 -22 c0 30 68 -90 125 -223
190 -439 311 -733 340 -820 10 -30 29 -78 41 -107 30 -67 42 -163 21 -163 -18
0 -89 140 -91 178 -1 17 -3 29 -6 27 -7 -4 -6 -6 -110 255 -45 113 -102 252
-127 310 -101 232 -207 466 -222 489 -12 19 -13 25 -3 29 7 2 10 8 6 13 -3 5
-2 14 2 20 4 8 9 7 15 -2 5 -8 9 -10 9 -6z m-100 -96 c0 -7 19 -51 41 -98 23
-46 72 -156 109 -244 37 -88 84 -198 105 -245 41 -94 134 -329 170 -430 13
-36 30 -82 39 -102 19 -45 20 -94 2 -126 l-13 -24 -16 34 c-33 71 -61 140
-133 331 -42 109 -110 278 -153 375 -43 97 -84 193 -91 212 -8 19 -31 72 -51
117 l-38 83 -45 -30 c-56 -38 -171 -162 -197 -212 -10 -21 -19 -57 -19 -81 0
-50 -31 -104 -70 -124 -86 -43 -220 16 -220 97 0 44 41 107 76 116 36 9 118
-2 159 -22 20 -9 37 -15 39 -13 2 2 20 38 41 79 50 101 85 149 134 188 22 18
48 47 57 64 25 49 74 85 74 55z m-1278 -96 c61 -23 119 -115 120 -190 0 -57
-11 -77 -61 -113 -51 -37 -116 -50 -181 -38 -64 12 -89 25 -121 62 l-25 30 17
78 c19 87 55 145 104 166 35 15 113 18 147 5z m-578 -247 c-43 -12 -135 -45
-204 -74 -69 -28 -186 -74 -260 -101 -74 -28 -146 -58 -158 -66 -13 -8 -26
-12 -29 -9 -8 7 110 64 222 107 55 21 134 52 175 69 182 77 301 114 324 102 5
-3 -26 -15 -70 -28z m-654 -319 c15 -13 20 -31 20 -66 0 -40 -4 -51 -31 -73
-23 -19 -42 -26 -74 -26 -64 0 -105 37 -105 95 0 36 5 48 32 70 28 24 39 27
85 23 32 -3 61 -12 73 -23z m4461 -1061 c-25 -8 -48 -17 -53 -22 -13 -13 34
-132 52 -132 8 0 27 7 42 14 19 10 30 11 34 4 9 -14 -15 -28 -48 -28 -14 0
-33 -2 -41 -5 -10 -4 -20 12 -36 57 -36 100 -37 106 -10 112 13 3 33 7 44 9
46 10 57 4 16 -9z m-164 -41 c7 -18 11 -33 8 -33 -4 0 -11 14 -16 30 -14 38
-49 40 -96 4 -43 -32 -46 -82 -8 -120 21 -21 33 -25 73 -22 45 3 47 4 52 38 5
33 6 34 18 13 21 -38 15 -60 -19 -67 -85 -17 -137 1 -165 57 -13 24 -13 34 -3
61 23 58 48 77 98 74 40 -3 46 -6 58 -35z m-253 -48 c30 -28 33 -51 10 -83
-15 -21 -14 -24 8 -42 13 -11 19 -19 14 -20 -5 0 -17 7 -27 16 -14 13 -38 20
-82 23 -15 2 4 21 20 21 25 0 53 30 53 57 0 32 -40 51 -75 35 -36 -16 -41 -37
-21 -91 18 -53 19 -61 7 -61 -8 0 -41 114 -41 144 0 15 22 22 76 25 20 1 40
-7 58 -24z m471 6 c-6 -5 -23 -12 -40 -16 l-30 -6 30 15 c35 17 53 20 40 7z
m-215 -20 c0 -11 -40 -22 -53 -14 -5 3 -3 9 4 14 18 11 49 11 49 0z m-488 -41
c31 -24 52 -72 44 -102 -3 -13 -17 -35 -31 -50 -21 -23 -34 -28 -68 -26 l-42
1 40 4 c94 10 120 104 43 157 -59 41 -147 -3 -134 -67 3 -18 15 -44 26 -59 16
-21 17 -26 5 -22 -22 9 -45 57 -45 94 0 47 47 90 98 90 24 0 49 -8 64 -20z
m-242 -33 c0 -7 -22 -19 -50 -26 -27 -7 -50 -16 -50 -19 0 -4 3 -17 6 -29 6
-21 13 -23 68 -24 33 -1 50 -4 36 -6 -14 -2 -40 -9 -58 -15 -29 -9 -33 -14
-28 -34 17 -69 18 -79 9 -69 -10 11 -57 194 -52 200 4 3 99 32 112 34 4 1 7
-5 7 -12z m-205 -56 c-6 -5 -27 -14 -47 -21 -29 -9 -38 -17 -38 -33 0 -40 12
-48 54 -36 54 15 55 4 2 -16 -46 -18 -56 -35 -37 -64 9 -14 64 -12 105 5 13 5
17 4 12 -4 -6 -10 -115 -47 -121 -40 -7 9 -46 180 -42 184 5 6 93 31 112 33 6
1 6 -2 0 -8z m-195 -61 c0 -5 -8 -10 -18 -10 -10 0 -26 -6 -35 -12 -15 -12
-14 -19 13 -88 17 -41 29 -79 27 -84 -2 -5 -18 29 -36 77 l-32 86 -42 3 -42 3
65 16 c79 20 100 22 100 9z m-225 -126 c-13 -34 -14 -51 -6 -81 13 -46 13 -53
2 -53 -5 0 -11 18 -15 40 -5 34 -13 44 -62 75 -61 39 -68 56 -11 29 45 -21 60
-15 83 34 15 31 20 35 22 20 2 -12 -4 -40 -13 -64z m-176 -64 c28 -58 32 -72
21 -85 -14 -17 -118 -50 -128 -41 -5 6 -51 152 -52 167 0 5 56 25 95 34 21 5
32 -8 64 -75z"/>
<path d="M8340 6900 c-19 -11 -31 -19 -27 -20 11 0 67 29 67 35 0 7 -1 7 -40
-15z"/>
<path d="M8027 6329 c4 -13 8 -18 11 -10 2 7 -1 18 -6 23 -8 8 -9 4 -5 -13z"/>
<path d="M8056 6277 c3 -10 9 -15 12 -12 3 3 0 11 -7 18 -10 9 -11 8 -5 -6z"/>
<path d="M8285 6215 c20 -56 16 -63 -38 -74 -103 -19 -109 -19 -103 -4 3 8 1
11 -4 8 -6 -4 -17 10 -26 30 -8 21 -17 35 -20 32 -3 -3 6 -32 20 -66 14 -33
26 -72 26 -85 0 -28 -51 -92 -81 -101 -11 -4 -16 -11 -13 -17 4 -6 10 -5 15 3
7 11 9 10 9 -5 0 -13 -4 -16 -17 -11 -21 8 -19 8 -95 -1 -44 -5 -63 -3 -81 9
-19 12 -24 13 -24 2 0 -8 4 -12 9 -9 4 3 12 -6 18 -20 5 -14 14 -26 20 -26 6
0 18 -7 26 -15 13 -12 13 -17 2 -28 -7 -8 -18 -12 -24 -10 -7 2 -15 -9 -19
-24 -8 -34 -25 -46 -44 -30 -12 9 -13 9 -7 0 11 -20 -32 -16 -81 7 -53 24 -57
17 -5 -8 54 -28 83 -33 190 -33 103 0 132 9 270 79 92 46 181 163 168 221 -3
14 -26 64 -51 111 -26 47 -43 76 -40 65z m-335 -325 c0 -5 -4 -10 -9 -10 -6 0
-13 5 -16 10 -3 6 1 10 9 10 9 0 16 -4 16 -10z"/>
<path d="M5895 7471 c-26 -12 -47 -31 -61 -57 -35 -63 -37 -91 -14 -130 28
-44 41 -44 29 0 -12 42 11 107 47 135 13 10 20 21 17 25 -3 3 21 6 54 6 48 0
73 -6 118 -30 32 -17 60 -28 63 -25 3 3 0 5 -7 5 -7 0 -10 4 -7 8 8 14 -48 62
-85 72 -51 15 -109 12 -154 -9z"/>
<path d="M6583 6772 c-46 -20 -83 -42 -83 -48 0 -26 207 -480 215 -472 3 3 1
18 -5 34 -10 27 -10 28 5 13 15 -15 20 -15 55 2 21 10 42 23 45 29 3 5 11 10
17 10 6 0 5 -7 -3 -17 -8 -9 4 -4 25 12 33 25 38 27 28 9 -12 -22 -130 -104
-150 -104 -6 0 -14 -4 -17 -10 -3 -5 0 -10 9 -10 26 0 164 100 186 135 l21 35
-67 167 c-84 211 -88 219 -124 238 -42 22 -66 19 -157 -23z m178 -19 c13 -16
12 -17 -3 -4 -10 7 -18 15 -18 17 0 8 8 3 21 -13z m59 -118 c0 -5 -5 -3 -10 5
-5 8 -10 20 -10 25 0 6 5 3 10 -5 5 -8 10 -19 10 -25z"/>
<path d="M5723 6455 c-62 -28 -103 -66 -103 -94 0 -11 27 -83 61 -158 33 -76
72 -167 86 -203 14 -36 30 -76 36 -89 14 -28 44 -44 34 -17 -11 27 1 18 18
-14 17 -33 19 -44 6 -36 -17 11 29 -153 69 -245 23 -52 62 -149 87 -217 52
-140 68 -158 132 -147 62 10 156 59 181 94 l22 32 -22 52 c-13 29 -42 99 -67
157 -73 176 -146 329 -154 325 -10 -7 -20 25 -12 37 4 7 1 8 -7 3 -10 -6 -12
-4 -7 9 4 9 0 31 -9 49 -9 17 -27 60 -39 96 -28 82 -118 287 -146 336 -37 62
-81 70 -166 30z m-57 -157 c7 -21 12 -38 9 -38 -9 0 -35 72 -34 94 1 20 2 20
6 1 2 -11 11 -37 19 -57z m28 -64 c3 -8 2 -12 -4 -9 -6 3 -10 10 -10 16 0 14
7 11 14 -7z m450 -424 c3 -14 -3 -7 -13 15 -11 22 -20 45 -20 50 0 15 26 -37
33 -65z m-236 -101 c-3 -8 -7 -3 -11 10 -4 17 -3 21 5 13 5 -5 8 -16 6 -23z
m196 -414 l17 -30 -20 24 c-12 13 -21 28 -21 34 0 12 0 11 24 -28z"/>
<path d="M6641 6209 c-39 -16 -18 -19 24 -4 22 8 31 14 20 14 -11 0 -31 -5
-44 -10z"/>
<path d="M7471 5678 c7 -13 25 -42 40 -64 16 -23 25 -44 22 -48 -4 -3 -1 -6 6
-6 17 0 11 14 -33 83 -36 57 -58 78 -35 35z"/>
<path d="M7308 5614 c25 -50 77 -104 100 -104 10 0 3 9 -18 25 -19 14 -47 44
-63 67 -38 57 -43 61 -19 12z"/>
<path d="M7433 5525 c0 -17 25 -20 47 -4 12 9 11 10 -7 6 -13 -3 -23 -1 -23 4
0 5 -4 9 -8 9 -5 0 -9 -7 -9 -15z"/>
<path d="M7000 5430 c0 -3 4 -20 9 -37 8 -27 6 -35 -7 -43 -14 -8 -12 -9 11
-10 25 0 27 3 21 23 -7 24 -33 75 -34 67z"/>
<path d="M6366 5390 c9 -63 -45 -120 -154 -163 -23 -9 -52 -17 -65 -17 -16 0
-18 -3 -9 -9 13 -8 134 30 158 50 6 5 14 6 17 2 4 -3 -1 -12 -11 -20 -14 -11
-11 -11 13 1 29 13 32 13 53 -9 22 -22 22 -24 4 -29 -11 -4 -27 -4 -36 0 -9 3
-16 2 -16 -3 0 -18 25 -33 56 -33 18 0 36 -4 39 -10 3 -5 -3 -10 -13 -10 -11
0 -25 -7 -32 -15 -6 -8 -15 -14 -18 -13 -4 1 -23 -2 -42 -6 -25 -5 -36 -13
-36 -25 0 -16 3 -17 31 -5 99 42 175 86 203 118 38 43 72 108 71 133 0 10 -7
-1 -16 -24 -8 -24 -19 -43 -24 -43 -5 0 -9 -6 -9 -14 0 -8 -7 -17 -16 -20 -9
-4 -14 -9 -11 -13 10 -9 -34 -44 -46 -36 -6 3 -7 1 -3 -6 11 -16 -22 -26 -39
-11 -9 7 -13 15 -10 18 2 3 12 -1 21 -9 16 -13 16 -12 5 9 -12 23 -13 23 -32
6 -23 -21 -24 -17 -3 24 11 23 12 36 5 50 -6 11 -9 29 -6 40 2 11 -2 23 -9 25
-8 3 -11 17 -8 35 2 17 -1 38 -7 49 -8 14 -9 11 -5 -17z m10 -79 c-4 -5 -1
-12 4 -14 6 -3 5 -4 -2 -3 -15 3 -23 26 -8 26 6 0 9 -4 6 -9z"/>
<path d="M6810 5412 c0 -4 6 -16 13 -26 10 -14 14 -15 14 -4 0 7 -6 19 -14 26
-7 7 -13 9 -13 4z"/>
<path d="M6571 5384 c0 -11 3 -14 6 -6 3 7 2 16 -1 19 -3 4 -6 -2 -5 -13z"/>
<path d="M6958 5333 c7 -3 16 -2 19 1 4 3 -2 6 -13 5 -11 0 -14 -3 -6 -6z"/>
<path d="M6918 5323 c7 -3 16 -2 19 1 4 3 -2 6 -13 5 -11 0 -14 -3 -6 -6z"/>
<path d="M6488 5258 c9 -9 9 -15 -1 -27 -11 -14 -10 -14 6 -2 13 10 15 17 6
27 -6 8 -14 14 -17 14 -3 0 -1 -5 6 -12z"/>
<path d="M5914 5103 c20 -35 159 -93 222 -93 37 0 94 18 94 31 0 4 -18 2 -40
-6 -44 -16 -72 -14 -148 9 -60 17 -95 39 -84 51 4 5 1 5 -6 1 -7 -4 -20 -2
-29 6 -12 9 -15 9 -9 1z"/>
<path d="M6245 5071 c-3 -5 -2 -12 3 -15 5 -3 9 1 9 9 0 17 -3 19 -12 6z"/>
<path d="M2541 6768 c-25 -13 -53 -35 -64 -49 -27 -38 -33 -108 -13 -147 21
-42 27 -41 14 2 -9 28 -7 43 8 80 11 25 22 46 25 46 3 0 16 9 29 20 15 13 18
20 9 20 -21 -1 -47 -23 -64 -56 -9 -18 -15 -23 -15 -12 0 9 12 30 26 47 25 30
26 30 117 28 63 -2 102 -8 125 -20 34 -19 43 -10 15 15 -31 27 -59 37 -114 43
-44 5 -62 2 -98 -17z"/>
<path d="M5320 4935 c0 -5 5 -17 10 -25 5 -8 10 -10 10 -5 0 6 -5 17 -10 25
-5 8 -10 11 -10 5z"/>
<path d="M5361 4840 c12 -30 24 -69 27 -86 3 -26 0 -32 -19 -37 -13 -4 -21 -8
-18 -11 3 -3 18 -2 35 3 34 9 34 19 -4 106 -33 77 -51 98 -21 25z"/>
<path d="M5156 4857 c3 -10 9 -15 12 -12 3 3 0 11 -7 18 -10 9 -11 8 -5 -6z"/>
<path d="M5171 4825 c0 -5 9 -28 20 -50 10 -22 16 -29 13 -15 -7 28 -33 80
-33 65z"/>
<path d="M5318 4693 c7 -3 16 -2 19 1 4 3 -2 6 -13 5 -11 0 -14 -3 -6 -6z"/>
<path d="M5237 4679 c7 -7 15 -10 18 -7 3 3 -2 9 -12 12 -14 6 -15 5 -6 -5z"/>
<path d="M4230 4545 c0 -5 5 -17 10 -25 5 -8 10 -10 10 -5 0 6 -5 17 -10 25
-5 8 -10 11 -10 5z"/>
<path d="M2916 4010 c3 -14 11 -32 16 -40 6 -10 7 -7 2 10 -3 14 -11 32 -16
40 -6 10 -7 7 -2 -10z"/>
<path d="M2727 3939 c4 -13 8 -18 11 -10 2 7 -1 18 -6 23 -8 8 -9 4 -5 -13z"/>
<path d="M2955 3915 c9 -35 46 -121 41 -94 -3 15 -15 46 -26 70 -11 24 -18 35
-15 24z"/>
<path d="M2751 3864 c0 -11 3 -14 6 -6 3 7 2 16 -1 19 -3 4 -6 -2 -5 -13z"/>
<path d="M2992 3774 c-7 -8 -8 -14 -3 -14 10 0 25 19 20 25 -2 1 -10 -3 -17
-11z"/>
<path d="M2870 3729 c0 -5 5 -7 10 -4 6 3 10 8 10 11 0 2 -4 4 -10 4 -5 0 -10
-5 -10 -11z"/>
<path d="M2809 3707 c7 -7 14 -8 21 -1 6 6 2 10 -12 11 -16 2 -18 -1 -9 -10z"/>
<path d="M1366 4765 c-49 -19 -93 -38 -99 -44 -6 -6 5 -51 31 -128 79 -229
120 -338 128 -338 13 0 162 54 210 76 27 13 46 31 57 54 16 34 16 36 -28 160
-49 139 -66 174 -102 223 -21 27 -30 32 -66 31 -23 0 -82 -16 -131 -34z m-31
-185 c7 -25 16 -54 20 -65 5 -12 4 -17 -1 -12 -10 10 -64 152 -70 187 -6 35
35 -54 51 -110z"/>
<path d="M1565 4065 c-88 -29 -179 -59 -203 -66 -55 -16 -130 -89 -92 -89 6 0
60 22 122 50 61 27 112 49 113 47 4 -5 144 -425 154 -462 20 -74 15 -74 164
-11 212 90 215 96 143 307 -65 190 -85 231 -131 258 -52 30 -90 26 -270 -34z
m-27 -66 c-3 -8 -7 -3 -11 10 -4 17 -3 21 5 13 5 -5 8 -16 6 -23z m437 -349
c-7 -11 -68 -44 -113 -61 -39 -15 -25 -5 48 34 76 41 73 40 65 27z"/>
<path d="M2024 3737 c3 -10 6 -40 6 -65 0 -30 3 -42 9 -33 10 15 3 79 -11 101
-8 12 -8 11 -4 -3z"/>
<path d="M1581 3704 c0 -11 3 -14 6 -6 3 7 2 16 -1 19 -3 4 -6 -2 -5 -13z"/>
<path d="M1397 3622 c1 -8 3 -18 3 -23 0 -18 16 -8 17 11 1 11 -2 18 -7 15 -4
-3 -10 -2 -13 2 -2 5 -2 2 0 -5z"/>
<path d="M5603 1130 c-29 -12 -33 -60 -4 -60 30 0 81 21 81 34 0 31 -35 43
-77 26z"/>
<path d="M5633 1059 c-27 -8 -33 -15 -33 -37 0 -48 13 -57 58 -44 53 16 68 35
54 67 -12 26 -27 29 -79 14z"/>
</g>
</svg>
